# xmcd
#
# Track frame offsets:
# 150
# 19937
# 41839
# 64212
# 80893
# 100813
# 118425
# 137472
# 145418
# 162907
# 173574
#
# Disc length: 2493 seconds
#
#
# Revision: 0
# Processed by: cddbd v1.5.2PL0 Copyright (c) Steve Scherf et al.
# Submitted via: FreeRIP 2.96 
#
DISCID=9e09bb0b
DTITLE=Cracker Blues - Entre o México e o Inferno
DYEAR=1900
DGENRE=Blues
TTITLE0=bolero maldito
TTITLE1=whisky cabrón
TTITLE2=velha tatuagem
TTITLE3=sangue de segunda
TTITLE4=blues do inimigo
TTITLE5=nascido em são paulo
TTITLE6=tinhoso
TTITLE7=charles bronson blues
TTITLE8=que o diabo lhe carregue
TTITLE9=blues 56
TTITLE10=oração para um ordinário
EXTD=
EXTT0=
EXTT1=
EXTT2=
EXTT3=
EXTT4=
EXTT5=
EXTT6=
EXTT7=
EXTT8=
EXTT9=
EXTT10=
PLAYORDER=
